<svg xmlns="http://www.w3.org/2000/svg" viewBox="0 0 64 64" role="img" aria-label="FRS">
  <rect width="64" height="64" rx="14" fill="#f8f9fa"/>
  <path
    d="M 6.00 53.97 L 6.37 53.96 L 6.75 53.95 L 7.12 53.93 L 7.50 53.91 L 7.87 53.88 L 8.24 53.85 L 8.62 53.80 L 8.99 53.75 L 9.37 53.67 L 9.74 53.58 L 10.12 53.47 L 10.49 53.34 L 10.86 53.18 L 11.24 52.98 L 11.61 52.74 L 11.99 52.45 L 12.36 52.11 L 12.73 51.71 L 13.11 51.24 L 13.48 50.69 L 13.86 50.06 L 14.23 49.34 L 14.60 48.52 L 14.98 47.59 L 15.35 46.55 L 15.73 45.40 L 16.10 44.13 L 16.47 42.74 L 16.85 41.23 L 17.22 39.61 L 17.60 37.88 L 17.97 36.06 L 18.35 34.14 L 18.72 32.16 L 19.09 30.12 L 19.47 28.05 L 19.84 25.97 L 20.22 23.91 L 20.59 21.89 L 20.96 19.94 L 21.34 18.10 L 21.71 16.38 L 22.09 14.83 L 22.46 13.45 L 22.83 12.28 L 23.21 11.33 L 23.58 10.63 L 23.96 10.19 L 24.33 10.00 L 24.71 10.09 L 25.08 10.44 L 25.45 11.05 L 25.83 11.90 L 26.20 12.99 L 26.58 14.29 L 26.95 15.79 L 27.32 17.45 L 27.70 19.25 L 28.07 21.16 L 28.45 23.16 L 28.82 25.21 L 29.19 27.28 L 29.57 29.36 L 29.94 31.41 L 30.32 33.42 L 30.69 35.36 L 31.06 37.22 L 31.44 38.98 L 31.81 40.64 L 32.19 42.19 L 32.56 43.62 L 32.94 44.93 L 33.31 46.12 L 33.68 47.18 L 34.06 48.13 L 34.43 48.96 L 34.81 49.68 L 35.18 50.28 L 35.55 50.77 L 35.93 51.15 L 36.30 51.41 L 36.68 51.56 L 37.05 51.58 L 37.42 51.48 L 37.80 51.23 L 38.17 50.83 L 38.55 50.28 L 38.92 49.56 L 39.29 48.68 L 39.67 47.63 L 40.04 46.43 L 40.42 45.08 L 40.79 43.63 L 41.17 42.09 L 41.54 40.52 L 41.91 38.96 L 42.29 37.47 L 42.66 36.11 L 43.04 34.93 L 43.41 33.98 L 43.78 33.31 L 44.16 32.94 L 44.53 32.89 L 44.91 33.17 L 45.28 33.77 L 45.65 34.65 L 46.03 35.77 L 46.40 37.10 L 46.78 38.57 L 47.15 40.13 L 47.53 41.72 L 47.90 43.30 L 48.27 44.82 L 48.65 46.25 L 49.02 47.55 L 49.40 48.72 L 49.77 49.74 L 50.14 50.62 L 50.52 51.36 L 50.89 51.97 L 51.27 52.46 L 51.64 52.85 L 52.01 53.16 L 52.39 53.39 L 52.76 53.57 L 53.14 53.70 L 53.51 53.79 L 53.88 53.86 L 54.26 53.90 L 54.63 53.94 L 55.01 53.96 L 55.38 53.97 L 55.76 53.98 L 56.13 53.99 L 56.50 53.99 L 56.88 54.00 L 57.25 54.00 L 57.63 54.00 L 58.00 54.00"
    fill="none"
    stroke="#1f5f7a"
    stroke-width="4.0"
    stroke-linecap="round"
    stroke-linejoin="round"/>
  <circle cx="44.40" cy="32.87" r="4.5" fill="#459d4c"/>
</svg>
